<svg xmlns="http://www.w3.org/2000/svg" width="24" height="24" fill="none"
    xmlns:v="https://vecta.io/nano">
    <path fill-rule="evenodd"
        d="M7.423 7.859c.875 0 1.646-.244 2.282-.556-.646 1.243-1.033 2.683-1.11 4.167-2.584.284-4.61 2.501-4.61 5.217C3.986 19.595 6.299 22 9.142 22c.876 0 1.715-.252 2.468-.675-1.168-1.17-1.895-2.838-1.895-4.638s.727-3.428 1.895-4.599c-.579-.325-1.211-.546-1.87-.632.249-4.142 3.307-7.558 7.251-8.181-1.004 1.442-1.546 3.163-1.546 4.969v3.229c-2.571.296-4.583 2.507-4.583 5.214 0 2.908 2.313 5.313 5.156 5.313s5.156-2.405 5.156-5.312c0-2.707-2.012-4.918-4.583-5.214V8.245c0-1.981.754-3.844 2.124-5.244l.978-1h-1.383c-2.691 0-5.13 1.122-6.894 2.933-.463-.455-1.949-1.761-3.991-1.761-2.313 0-3.927 1.686-4.132 1.901l-.019.02-.433.423.433.423c.003.003.01.01.019.02.205.214 1.819 1.901 4.132 1.901zm8.594 7.07c-.948 0-1.719.789-1.719 1.758h-1.146c0-1.615 1.285-2.93 2.865-2.93v1.172zm-8.594 1.758c0-.969.771-1.758 1.719-1.758v-1.172c-1.579 0-2.865 1.314-2.865 2.93h1.146z"
        fill="#001106" />
</svg>