<svg xmlns="http://www.w3.org/2000/svg" width="32" height="32" fill="none" xmlns:v="https://vecta.io/nano"><g clip-path="url(#A)"><path fill-rule="evenodd" d="M26.369 5.907a2 2 0 0 1 2.014.273 2 2 0 0 1 .735 1.895l-3.024 18.343c-.293 1.769-2.235 2.784-3.857 1.903l-5.187-3.059c-.907-.593-3.684-2.493-3.343-3.845.293-1.156 4.96-5.5 7.627-8.083 1.047-1.015.569-1.6-.667-.667-3.069 2.317-7.997 5.841-9.627 6.833-1.437.875-2.187 1.024-3.083.875-1.635-.272-3.151-.693-4.388-1.207-1.672-.693-1.591-2.992-.001-3.661l22.8-9.6z" fill="#fedf00"/></g><defs><clipPath id="A"><path fill="#fff" d="M0 0h32v32H0z"/></clipPath></defs></svg>