<svg xmlns="http://www.w3.org/2000/svg" width="32" height="32" fill="none" xmlns:v="https://vecta.io/nano"><path d="M16.001 2.667c7.364 0 13.333 5.969 13.333 13.333s-5.969 13.333-13.333 13.333a13.27 13.27 0 0 1-6.707-1.807l-6.621 1.807 1.803-6.624A13.27 13.27 0 0 1 2.668 16c0-7.364 5.969-13.333 13.333-13.333zm-4.544 7.067l-.267.011a1.28 1.28 0 0 0-.496.133 1.72 1.72 0 0 0-.392.304c-.16.151-.251.281-.348.408a3.64 3.64 0 0 0-.755 2.237c.003.653.173 1.289.44 1.884.545 1.203 1.443 2.476 2.627 3.656.285.284.565.569.867.835a12.6 12.6 0 0 0 5.12 2.728l.757.116c.247.013.493-.005.741-.017.388-.02.768-.125 1.111-.308a6.42 6.42 0 0 0 .511-.293s.057-.037.167-.12c.18-.133.291-.228.44-.384a1.53 1.53 0 0 0 .28-.403c.104-.217.208-.632.251-.977.032-.264.023-.408.019-.497-.005-.143-.124-.291-.253-.353l-.776-.348-1.869-.828c-.074-.032-.154-.051-.235-.055a.64.64 0 0 0-.504.169c-.007-.003-.096.073-1.06 1.241-.055.074-.132.131-.219.161s-.182.035-.272.012a1.91 1.91 0 0 1-.255-.088l-.336-.144c-.765-.334-1.474-.785-2.1-1.337-.168-.147-.324-.307-.484-.461-.525-.502-.982-1.071-1.36-1.691l-.079-.127c-.056-.085-.102-.177-.136-.273-.051-.196.081-.353.081-.353s.324-.355.475-.547c.147-.187.271-.368.351-.497.157-.253.207-.513.124-.715l-1.157-2.721c-.079-.179-.312-.307-.524-.332l-.216-.021c-.179-.009-.359-.007-.537.005l.269-.009z" fill="#fedf00"/></svg>